<?xml version="1.0" encoding="UTF-8"?>
<!-- Generator: Adobe Illustrator 16.0.0, SVG Export Plug-In . SVG Version: 6.00 Build 0)  -->
<svg xmlns="http://www.w3.org/2000/svg" xmlns:xlink="http://www.w3.org/1999/xlink" version="1.1" id="圖層_1" x="0px" y="0px" width="86.617px" height="50px" viewBox="0 0 86.617 50" xml:space="preserve">
<polygon fill="#1C1C1B" points="0,16.646 0,29.797 7.98,29.797 7.98,27.627 2.358,27.627 2.358,16.646 "></polygon>
<path fill="#1C1C1B" d="M18.979,27.08h-5.15l-1,2.717h-2.566l5.264-13.151h1.773l5.245,13.151h-2.566L18.979,27.08z M18.188,24.91  l-1.773-4.792l-1.774,4.792H18.188z"></path>
<rect x="42.704" y="16.666" fill="#1C1C1B" width="2.358" height="13.15"></rect>
<g>
	<defs>
		<rect id="SVGID_1_" width="86.617" height="50"></rect>
	</defs>
	<clipPath id="SVGID_2_">
		<use xlink:href="#SVGID_1_" overflow="visible"></use>
	</clipPath>
	<path clip-path="url(#SVGID_2_)" fill="#1C1C1B" d="M48.628,26.099l2.341-0.585c0.169,1.566,1.207,2.453,2.734,2.453   c1.321,0,2.17-0.661,2.17-1.774c0-0.905-0.679-1.471-2.623-2.245c-2.754-1.075-3.734-2.075-3.734-3.981   c0-2.132,1.641-3.585,4.094-3.585c1.772,0,3.17,0.812,4,2.397l-1.962,1.207c-0.453-0.981-1.228-1.509-2.114-1.509   c-0.943,0-1.66,0.622-1.66,1.434c0,0.868,0.643,1.358,2.623,2.132c2.812,1.075,3.735,2.075,3.735,3.943   c0,2.453-1.867,4.075-4.565,4.075C51.043,30.061,49.005,28.495,48.628,26.099"></path>
	<polygon clip-path="url(#SVGID_2_)" fill="#1C1C1B" points="64.495,18.835 60.383,18.835 60.383,16.665 70.985,16.665    70.985,18.835 66.872,18.835 66.872,29.816 64.495,29.816  "></polygon>
	<path clip-path="url(#SVGID_2_)" fill="#1C1C1B" d="M79.787,30.061c-3.766,0-6.829-3.063-6.829-6.83s3.063-6.83,6.829-6.83   c3.767,0,6.83,3.064,6.83,6.83S83.554,30.061,79.787,30.061 M79.787,18.581c-2.455,0-4.454,2.037-4.454,4.65   c0,2.614,1.999,4.648,4.454,4.648c2.456,0,4.455-2.034,4.455-4.648C84.242,20.618,82.243,18.581,79.787,18.581"></path>
	<path clip-path="url(#SVGID_2_)" fill="#1C1C1B" d="M36.438,42.066c0.311-5.497,1.401-24.724,1.905-33.592   c0.115-2.02,0.143-2.426,0.415-3.213c0.648-1.875,2.324-3.08,4.199-3.08c2.459,0,4.456,2.038,4.456,4.65   c0,1.742-1.034,3.144-2.345,3.843l1.172,2.136c2.111-1.16,3.549-3.405,3.549-5.979C49.789,3.065,46.724,0,42.957,0   c-2.845,0-5.231,1.747-6.259,4.091c-0.42,0.957-0.585,1.765-0.72,4.142c-0.539,9.501-1.627,28.712-1.923,33.92   c-0.088,1.559-0.157,2.036-0.253,2.371c-0.552,1.93-2.256,3.293-4.268,3.293c-2.456,0-4.455-2.033-4.455-4.647   c0-2.468,1.784-4.416,4.051-4.631c9.382-0.893,34.854-3.315,34.854-3.315l-0.206-2.162c0,0-26.181,2.476-34.905,3.311   c-3.457,0.331-6.168,3.256-6.168,6.798c0,3.767,3.063,6.83,6.829,6.83c2.972,0,5.756-1.965,6.594-5.047   C36.255,44.485,36.341,43.782,36.438,42.066"></path>
</g>
</svg>
